PathFileType	4	(X/Y/Z)	./resultDataOpenSim/trcMotMarkerGrf/sub10/qtm-02-08.trc
DataRate	CameraRate	NumFrames	NumMarkers	Units	OrigDataRate	OrigDataStartFrame	OrigNumFrames
250.000000	250.000000	8	24	m	250.000000	60	473
Frame#	Time	L.Toe.Tip			R.Toe.Tip			L.Ankle.Lat			R.Ankle.Lat			L.Ankle.Med			R.Ankle.Med			L.Heel			R.Heel			L.Knee.Lat			R.Knee.Lat			L.Knee.Med			R.Knee.Med			L.Thigh.Upper			R.Thigh.Upper			L.ASIS			R.ASIS			V.Sacral			L.Acromium			R.Acromium			C7			L.Elbow			R.Elbow			L.Wrist.Lat			R.Wrist.Lat
		X1	Y1	Z1	X2	Y2	Z2	X3	Y3	Z3	X4	Y4	Z4	X5	Y5	Z5	X6	Y6	Z6	X7	Y7	Z7	X8	Y8	Z8	X9	Y9	Z9	X10	Y10	Z10	X11	Y11	Z11	X12	Y12	Z12	X13	Y13	Z13	X14	Y14	Z14	X15	Y15	Z15	X16	Y16	Z16	X17	Y17	Z17	X18	Y18	Z18	X19	Y19	Z19	X20	Y20	Z20	X21	Y21	Z21	X22	Y22	Z22	X23	Y23	Z23	X24	Y24	Z24

60	0.236	-1.4502283	0.055550893	-0.052205559	-0.74690469	0.040687775	0.073300264	-1.4430725	0.19279913	-0.093184695	-0.87948164	0.05405367	0.12833023	-1.420483	0.19033976	-0.013561827	-0.87693009	0.079296509	0.041943167	-1.4785662	0.24260555	-0.037835309	-0.93815343	0.028396517	0.088545775	-1.1393451	0.42006213	-0.12872241	-0.8702963	0.45374229	0.14991802	-1.1185613	0.37766845	-0.016020175	-0.88617384	0.45833455	0.021997678	-1.0637903	0.79326771	-0.15860339	-0.97940449	0.85731447	0.21441091	-0.98546026	0.90432227	-0.1075344	-0.93118133	0.94127888	0.1266308	-1.1555488	0.94010902	0.046022702	-1.0105721	1.3914777	-0.12657137	-1.0278634	1.3913703	0.19423987	-1.1022886	1.4203845	0.027218964	-1.078478	1.0481415	-0.18363963	-1.1755924	1.0808604	0.23322234	-0.88947477	0.88962161	-0.15752764	-1.1419708	0.86383883	0.33480093
61	0.24	-1.4449529	0.057783228	-0.05283866	-0.74684302	0.040614219	0.073248712	-1.4332823	0.1956115	-0.093289894	-0.87942855	0.05402828	0.1283496	-1.4095981	0.19248252	-0.013980839	-0.8769319	0.079313981	0.041802235	-1.4668478	0.24611288	-0.037785629	-0.938154	0.028360328	0.088614069	-1.127843	0.41953378	-0.12953939	-0.86674974	0.45374096	0.14982975	-1.1063785	0.37683282	-0.016705777	-0.88440945	0.45816189	0.022189971	-1.0568594	0.79313684	-0.15825714	-0.9735546	0.85789843	0.21465312	-0.97921642	0.90485356	-0.10706094	-0.92578817	0.94172274	0.12678948	-1.150311	0.94071987	0.045997439	-1.0050918	1.392157	-0.12643416	-1.0223349	1.3919224	0.19453085	-1.0968825	1.4210163	0.027548264	-1.0739416	1.0490226	-0.18341035	-1.1694587	1.0812649	0.23333579	-0.88525062	0.8899383	-0.15824514	-1.135655	0.8640591	0.33500721
62	0.244	-1.4387952	0.060212991	-0.053394779	-0.74679552	0.040550057	0.07319719	-1.4234136	0.19824128	-0.093333622	-0.87938173	0.054000506	0.12838687	-1.3972109	0.19465958	-0.014761873	-0.87692894	0.079351203	0.041675085	-1.4553482	0.24950585	-0.038297525	-0.93816345	0.02832309	0.088684914	-1.1165219	0.41906823	-0.13024789	-0.86316853	0.45371715	0.14968314	-1.0943029	0.37634327	-0.017300534	-0.88298013	0.45800986	0.02256369	-1.0499668	0.79313605	-0.1579698	-0.96775585	0.85841909	0.2148405	-0.97306465	0.90544742	-0.10667863	-0.9205556	0.94208566	0.12692324	-1.1448914	0.94118099	0.04612432	-0.99961398	1.392841	-0.12636545	-1.0167425	1.3924749	0.19480271	-1.0914506	1.4217153	0.027864063	-1.0693807	1.0498802	-0.1831815	-1.163269	1.081614	0.23348908	-0.88104452	0.89022426	-0.15897831	-1.1293657	0.86424675	0.33510859
63	0.248	-1.431564	0.06283597	-0.05379032	-0.74676027	0.04049489	0.07314212	-1.4134652	0.20075577	-0.093325055	-0.8793366	0.053970743	0.12843493	-1.3845622	0.19686394	-0.015536715	-0.87689345	0.079392075	0.04158257	-1.4441352	0.25275567	-0.038999199	-0.93818244	0.028283713	0.088745903	-1.1053612	0.41865309	-0.13082365	-0.85973554	0.45370652	0.14952333	-1.0824213	0.37618471	-0.017779542	-0.88174644	0.45789295	0.023112755	-1.0431168	0.7932659	-0.15772862	-0.96204054	0.85891027	0.21499507	-0.96708692	0.90608911	-0.10642375	-0.91533794	0.94239082	0.12702569	-1.1392967	0.94153198	0.046406061	-0.99415262	1.3935322	-0.12633756	-1.0110777	1.3930361	0.19504441	-1.085988	1.4224783	0.028158812	-1.0648182	1.0507215	-0.18299398	-1.1569958	1.0819295	0.23379507	-0.87685322	0.89049237	-0.15972392	-1.1230817	0.86440272	0.33508916
64	0.252	-1.4231504	0.065590552	-0.05401809	-0.74673063	0.040447634	0.073085037	-1.4033075	0.20322812	-0.09331595	-0.87929326	0.053942517	0.1284837	-1.3727685	0.19910472	-0.015977178	-0.87681467	0.079427294	0.041522452	-1.4332296	0.25577202	-0.039498782	-0.9382095	0.028242745	0.088790943	-1.0942938	0.4182902	-0.13125324	-0.85661281	0.45373551	0.14942882	-1.0707216	0.37632101	-0.018139303	-0.88041291	0.45783778	0.023691699	-1.0363185	0.79351953	-0.15752313	-0.95643757	0.85941067	0.21515504	-0.96130889	0.90677195	-0.10630304	-0.91000394	0.94266098	0.12709439	-1.1336471	0.94182249	0.046772559	-0.98871677	1.3942331	-0.12632444	-1.0053424	1.3936118	0.19524221	-1.0804954	1.4232963	0.028432204	-1.0602736	1.0515535	-0.18289372	-1.1506762	1.0822645	0.23428642	-0.87269979	0.8907505	-0.16048542	-1.1166811	0.86453012	0.33501866
65	0.256	-1.4135582	0.068373618	-0.05411362	-0.74670211	0.040407499	0.073027024	-1.3928857	0.20567443	-0.093319333	-0.87925484	0.053918295	0.12852591	-1.3618613	0.20141189	-0.016079838	-0.87670133	0.079454256	0.041476222	-1.4225867	0.25852217	-0.039741585	-0.93824153	0.028204995	0.088826979	-1.0832317	0.4180227	-0.13156296	-0.85382105	0.45379057	0.14944697	-1.0590261	0.37672153	-0.018445066	-0.87867994	0.45786209	0.024112694	-1.0295814	0.79388727	-0.15734684	-0.95095381	0.85992527	0.21532413	-0.95570589	0.90750245	-0.10630875	-0.90454369	0.94290879	0.12713442	-1.128041	0.94208545	0.04714786	-0.98329644	1.3949472	-0.12632197	-0.99956001	1.3942032	0.19539299	-1.0749794	1.4241575	0.028687343	-1.0557471	1.0523869	-0.18286708	-1.1444498	1.0826479	0.23472394	-0.86861578	0.89100135	-0.16125897	-1.1100956	0.86463888	0.33492283
66	0.26	-1.4028886	0.071066912	-0.054097936	-0.74667416	0.040373421	0.072967858	-1.3822742	0.20804589	-0.09329646	-0.87922287	0.05389692	0.12855999	-1.3512702	0.20380229	-0.016018227	-0.87657022	0.079473045	0.041426977	-1.4121293	0.26103162	-0.039888808	-0.9382749	0.028178059	0.088863426	-1.072043	0.41793076	-0.13184726	-0.85129019	0.45383669	0.14956924	-1.0470227	0.37738087	-0.018827108	-0.87643964	0.45796746	0.024271275	-1.0229277	0.79435489	-0.15718871	-0.94556716	0.8604346	0.21547283	-0.95023441	0.90829546	-0.10642737	-0.89902776	0.94314462	0.12715831	-1.1225193	0.94234506	0.047479794	-0.97788411	1.3956737	-0.12634013	-0.99376899	1.3948126	0.19550967	-1.0694501	1.4250515	0.028924361	-1.0512285	1.0532324	-0.18285403	-1.1384745	1.0830593	0.2347244	-0.86462035	0.89124723	-0.16203611	-1.1033578	0.86474376	0.33474899
67	0.264	-1.3912969	0.073564866	-0.053965629	-0.7466493	0.040344957	0.07290722	-1.3715251	0.21027739	-0.093222134	-0.87919522	0.053876382	0.12858706	-1.3405891	0.20625675	-0.015920636	-0.87643946	0.079484807	0.041368184	-1.4017985	0.26332378	-0.040081764	-0.93830744	0.02816548	0.088900504	-1.0606506	0.41806743	-0.1321968	-0.84894035	0.4538482	0.14974223	-1.0344423	0.3783004	-0.019407893	-0.87380402	0.45814371	0.024157146	-1.0163998	0.79489804	-0.15706032	-0.94025551	0.86092692	0.21557821	-0.94484991	0.90916209	-0.10663775	-0.89351267	0.94338009	0.12717929	-1.1170855	0.94262826	0.047734272	-0.97249069	1.39641	-0.12638712	-0.98799952	1.3954457	0.19560931	-1.0639178	1.4259706	0.029139497	-1.0467109	1.0540942	-0.18282686	-1.1327677	1.0834752	0.2342047	-0.86072798	0.89149282	-0.16282008	-1.096535	0.86485531	0.33445793
